<?xml version="1.0" encoding="UTF-8"?>
<svg id="Capa_1" data-name="Capa 1" xmlns="http://www.w3.org/2000/svg" viewBox="0 0 3000 3000">
  <defs>
    <style>
      .cls-1 {
        fill: none;
      }

      .cls-1, .cls-2 {
        stroke-width: 0px;
      }

      .cls-2 {
        fill: #2aafd3;
      }

      .cls-3 {
        fill: #fff;
        stroke: #fff;
        stroke-miterlimit: 10;
        stroke-width: .25px;
      }
    </style>
  </defs>
  <path class="cls-2" d="M1231.03,231.03h1537.93v1537.93c0,551.92-448.08,1000-1000,1000h-537.93c-551.92,0-1000-448.08-1000-1000v-537.93c0-551.92,448.08-1000,1000-1000Z"/>
  <path class="cls-2" d="M1330.3,330.3h1339.4v1339.4c0,551.92-448.08,1000-1000,1000h-339.4c-551.92,0-1000-448.08-1000-1000v-339.4c0-551.92,448.08-1000,1000-1000Z"/>
  <rect class="cls-1" x="877.36" y="573.96" width="1565.47" height="1565.47"/>
  <g>
    <path class="cls-3" d="M2121.23,1235.21c34.7,81.31,53.92,170.81,53.92,264.79,0,372.87-302.27,675.14-675.14,675.14s-675.14-302.27-675.14-675.14,302.27-675.14,675.14-675.14c96.96,0,189.14,20.45,272.48,57.25v-466.96h-272.48c-596.67,0-1084.85,488.18-1084.85,1084.85h0c0,596.67,488.18,1084.85,1084.85,1084.85h0c596.67,0,1084.85-488.18,1084.85-1084.85v-264.8h-463.62Z"/>
    <circle class="cls-3" cx="1500" cy="1500" r="401.37"/>
  </g>
</svg>